<svg xmlns="http://www.w3.org/2000/svg" version="1.1" xmlns:xlink="http://www.w3.org/1999/xlink" xmlns:svgjs="http://svgjs.dev/svgjs" width="1000" height="1000" viewBox="0 0 1000 1000"><rect width="1000" height="1000" fill="#b19dd0"></rect><g transform="matrix(0.7,0,0,0.7,149.57575757575756,282.1265587044535)"><svg viewBox="0 0 396 247" data-background-color="#b19dd0" preserveAspectRatio="xMidYMid meet" height="623" width="1000" xmlns="http://www.w3.org/2000/svg" xmlns:xlink="http://www.w3.org/1999/xlink"><g id="tight-bounds" transform="matrix(1,0,0,1,0.2400000000000091,-0.09999999999999432)"><svg viewBox="0 0 395.52 247.2" height="247.2" width="395.52"><g><svg></svg></g><g><svg viewBox="0 0 395.52 247.2" height="247.2" width="395.52"><g transform="matrix(1,0,0,1,165.4601417142857,47.215199999999996)"><svg viewBox="0 0 64.59971657142859 152.7696" height="152.7696" width="64.59971657142859"><g><svg viewBox="0 0 64.59971657142859 152.7696" height="152.7696" width="64.59971657142859"><g><svg viewBox="0 0 64.59971657142859 152.7696" height="152.7696" width="64.59971657142859"><g><svg viewBox="0 0 64.59971657142859 152.7696" height="152.7696" width="64.59971657142859"><g id="textblocktransform"><svg viewBox="0 0 64.59971657142859 152.7696" height="152.7696" width="64.59971657142859" id="textblock"><g><svg viewBox="0 0 64.59971657142859 152.7696" height="152.7696" width="64.59971657142859"><g transform="matrix(1,0,0,1,0,0)"><svg width="64.59971657142859" viewBox="-1 -39.29999923706055 22.200000762939453 52.5" height="152.7696" data-palette-color="#7a26c1"><path d="M16.45-32.05L16.45-4.95Q16.45-2.95 16.57-1.28 16.7 0.4 16.9 1L16.9 1 4.55 13.2 0.65 10.2Q3.65 6.65 4.67 4.15 5.7 1.65 5.7-2.05L5.7-2.05 5.7-33.85-1-35.3 1-39.3 21.2-39.3 21.2-35.75 16.45-32.05Z" opacity="1" transform="matrix(1,0,0,1,0,0)" fill="#7a26c1" class="wordmark-text-0" data-fill-palette-color="primary" id="text-0"></path></svg></g></svg></g></svg></g></svg></g></svg></g></svg></g></svg></g><g><path d="M155.9 0c30.402 0 58.24 10.976 79.768 29.183l-11.147 0c-19.26-14.022-42.974-22.294-68.621-22.295-25.647 0-49.361 8.272-68.621 22.295l-11.147 0c21.528-18.206 49.366-29.183 79.768-29.183zM155.9 247.2c-30.402 0-58.24-10.976-79.768-29.183l11.147 0c19.26 14.022 42.974 22.294 68.621 22.295 25.647 0 49.361-8.272 68.621-22.295l11.147 0c-21.528 18.206-49.366 29.183-79.768 29.183z" fill="#7a26c1" stroke="transparent" data-fill-palette-color="tertiary"></path></g></svg></g><defs></defs></svg><rect width="395.52" height="247.2" fill="none" stroke="none" visibility="hidden"></rect></g></svg></g></svg>